<svg style="enable-background:new 0 0 474 474;" version="1.1" xml:space="preserve" xmlns="http://www.w3.org/2000/svg" xmlns:xlink="http://www.w3.org/1999/xlink" width="474" height="474"><rect id="backgroundrect" width="100%" height="100%" x="0" y="0" fill="none" stroke="none" style="" class=""/><style type="text/css">
	.st0{fill:url(#SVGID_1_);}
	.st1{fill:#FFFFFF;}
</style><g class="currentLayer" style=""><title>Layer 1</title><g id="Edges" class="selected"/><g id="Background_1_" class="selected"><radialGradient cx="50.158199310302734" cy="15.104700088500977" gradientTransform="translate(0, -19.1016) translate(-18.5) matrix(0.052336, -0.9986, 0.8488, 0.0444856, 12.0003, 498.801)" gradientUnits="userSpaceOnUse" id="SVGID_1_" r="684.4448852539062"><stop offset="0" style="stop-color:#FED576"/><stop offset="0.2634" style="stop-color:#F47133"/><stop offset="0.6091" style="stop-color:#BC3081"/><stop offset="1" style="stop-color:#4C63D2"/></radialGradient><path class="st0" d="M0.2999992370605469,230.99844360351562 v12.800000190734863 c3.299999952316284,122.4000015258789 101.9000015258789,220.6999969482422 219.1999969482422,229.89999389648438 h36.099998474121094 c118,-9.300000190734863 214.89999389648438,-108.5 218.10000610351562,-230.10000610351562 v-12.600000381469727 C470.5,107.19844055175781 370.20001220703125,6.798437118530273 249.39999389648438,0.5984382629394531 C119.39999389648438,-6.001562118530273 3.8999996185302734,98.2984390258789 0.2999992370605469,230.99844360351562 z" id="svg_1"/></g><g id="Symbol" class="selected"><g id="svg_2"><path class="st1" d="M237.00039672851562,119.10078430175781 c37.70000076293945,0 42.20000076293945,0.10000000149011612 57.099998474121094,0.800000011920929 c13.800000190734863,0.6000000238418579 21.200000762939453,3 26.200000762939453,4.900000095367432 c6.599999904632568,2.5999999046325684 11.300000190734863,5.699999809265137 16.200000762939453,10.699999809265137 c4.900000095367432,5 8,9.800000190734863 10.600000381469727,16.5 c1.899999976158142,5.099999904632568 4.199999809265137,12.699999809265137 4.900000095367432,26.700000762939453 c0.699999988079071,15.199999809265137 0.800000011920929,19.700000762939453 0.800000011920929,58.099998474121094 s-0.10000000149011612,42.900001525878906 -0.800000011920929,58.099998474121094 c-0.6000000238418579,14 -2.9000000953674316,21.600000381469727 -4.900000095367432,26.700000762939453 c-2.5999999046325684,6.699999809265137 -5.599999904632568,11.5 -10.600000381469727,16.5 c-4.900000095367432,5 -9.600000381469727,8.100000381469727 -16.200000762939453,10.699999809265137 c-5,2 -12.5,4.300000190734863 -26.200000762939453,4.900000095367432 c-14.899999618530273,0.699999988079071 -19.399999618530273,0.800000011920929 -57.099998474121094,0.800000011920929 c-37.70000076293945,0 -42.20000076293945,-0.10000000149011612 -57.099998474121094,-0.800000011920929 c-13.800000190734863,-0.6000000238418579 -21.200000762939453,-3 -26.200000762939453,-4.900000095367432 c-6.599999904632568,-2.5999999046325684 -11.300000190734863,-5.699999809265137 -16.200000762939453,-10.699999809265137 c-4.900000095367432,-5 -8,-9.800000190734863 -10.600000381469727,-16.5 c-1.899999976158142,-5.099999904632568 -4.199999809265137,-12.699999809265137 -4.900000095367432,-26.700000762939453 c-0.699999988079071,-15.199999809265137 -0.800000011920929,-19.700000762939453 -0.800000011920929,-58.099998474121094 s0.10000000149011612,-42.900001525878906 0.800000011920929,-58.099998474121094 c0.6000000238418579,-14 2.9000000953674316,-21.600000381469727 4.900000095367432,-26.700000762939453 c2.5999999046325684,-6.699999809265137 5.599999904632568,-11.5 10.600000381469727,-16.5 c4.900000095367432,-5 9.600000381469727,-8.100000381469727 16.200000762939453,-10.699999809265137 c5,-2 12.5,-4.300000190734863 26.200000762939453,-4.900000095367432 C194.80038452148438,119.30078125 199.30038452148438,119.10078430175781 237.00039672851562,119.10078430175781 M237.00039672851562,93.2007827758789 c-38.400001525878906,0 -43.20000076293945,0.20000000298023224 -58.20000076293945,0.8999999761581421 c-15,0.699999988079071 -25.299999237060547,3.0999999046325684 -34.29999923706055,6.699999809265137 c-9.300000190734863,3.700000047683716 -17.200000762939453,8.600000381469727 -25,16.600000381469727 c-7.900000095367432,8 -12.699999809265137,16 -16.299999237060547,25.5 c-3.5,9.100000381469727 -5.900000095367432,19.600000381469727 -6.599999904632568,34.900001525878906 c-0.699999988079071,15.300000190734863 -0.800000011920929,20.200000762939453 -0.800000011920929,59.20000076293945 c0,39 0.20000000298023224,43.900001525878906 0.800000011920929,59.20000076293945 c0.699999988079071,15.300000190734863 3.0999999046325684,25.700000762939453 6.599999904632568,34.900001525878906 c3.5999999046325684,9.399999618530273 8.399999618530273,17.5 16.299999237060547,25.5 c7.900000095367432,8 15.699999809265137,12.899999618530273 25,16.600000381469727 c9,3.5999999046325684 19.299999237060547,6 34.29999923706055,6.699999809265137 c15.100000381469727,0.699999988079071 19.899999618530273,0.8999999761581421 58.20000076293945,0.8999999761581421 s43.20000076293945,-0.20000000298023224 58.20000076293945,-0.8999999761581421 c15,-0.699999988079071 25.299999237060547,-3.0999999046325684 34.29999923706055,-6.699999809265137 c9.300000190734863,-3.700000047683716 17.200000762939453,-8.600000381469727 25,-16.600000381469727 c7.900000095367432,-8 12.699999809265137,-16 16.299999237060547,-25.5 c3.5,-9.100000381469727 5.900000095367432,-19.600000381469727 6.599999904632568,-34.900001525878906 c0.699999988079071,-15.300000190734863 0.800000011920929,-20.200000762939453 0.800000011920929,-59.20000076293945 s-0.20000000298023224,-43.900001525878906 -0.800000011920929,-59.20000076293945 c-0.699999988079071,-15.300000190734863 -3.0999999046325684,-25.700000762939453 -6.599999904632568,-34.900001525878906 c-3.5999999046325684,-9.399999618530273 -8.399999618530273,-17.5 -16.299999237060547,-25.5 c-7.900000095367432,-8 -15.699999809265137,-12.899999618530273 -25,-16.600000381469727 c-9,-3.5999999046325684 -19.299999237060547,-6 -34.29999923706055,-6.699999809265137 C280.20037841796875,93.4007797241211 275.3003845214844,93.2007827758789 237.00039672851562,93.2007827758789 L237.00039672851562,93.2007827758789 z" id="svg_3"/><path class="st1" d="M237.00039672851562,163.1007843017578 c-40.099998474121094,0 -72.5,33 -72.5,73.80000305175781 s32.5,73.80000305175781 72.5,73.80000305175781 s72.5,-33 72.5,-73.80000305175781 S277.0003967285156,163.1007843017578 237.00039672851562,163.1007843017578 zM237.00039672851562,284.80078125 c-26,0 -47.099998474121094,-21.399999618530273 -47.099998474121094,-47.900001525878906 s21.100000381469727,-47.900001525878906 47.099998474121094,-47.900001525878906 c26,0 47.099998474121094,21.399999618530273 47.099998474121094,47.900001525878906 S263.0003967285156,284.80078125 237.00039672851562,284.80078125 z" id="svg_4"/><ellipse class="st1" cx="312.400390625" cy="160.20077514648438" rx="16.899999618530273" ry="17.200000762939453" id="svg_5"/></g></g></g></svg>