<?xml version="1.0" encoding="utf-8"?>
<!-- Generator: Adobe Illustrator 21.0.2, SVG Export Plug-In . SVG Version: 6.00 Build 0)  -->
<svg version="1.1" id="Layer_1" xmlns="http://www.w3.org/2000/svg" xmlns:xlink="http://www.w3.org/1999/xlink" x="0px" y="0px"
	 viewBox="0 0 1000 1000" style="enable-background:new 0 0 1000 1000;" xml:space="preserve">
<style type="text/css">
	.st0{fill:#00287C;}
	.st1{fill:#FFFFFF;}
	.st2{fill:#1FBAED;}
</style>
<rect class="st0" width="1000" height="1000"/>
<g>
	<path class="st1" d="M487.2,499.2L289.9,232.8l0,0c-12.3-16.4-32.1-26.9-54.6-26.9c-37.2,0-67.3,29.1-67.3,64.9
		c0,15.6,5.7,29.9,15.2,41.2l0,0l139.3,188L183.2,688l0,0c-9.5,11.3-15.2,25.5-15.2,41.2c0,35.8,30.1,64.9,67.3,64.9
		c22.6,0,42.4-10.7,54.6-26.9l0,0l197.3-266.4L486,500L487.2,499.2z"/>
	<path class="st2" d="M512.8,499.2l197.3-266.4l0,0c12.3-16.4,32.1-26.9,54.6-26.9c37.2,0,67.3,29.1,67.3,64.9
		c0,15.6-5.7,29.9-15.2,41.2l0,0L677.4,500l139.3,188l0,0c9.5,11.3,15.2,25.5,15.2,41.2c0,35.8-30.1,64.9-67.3,64.9
		c-22.6,0-42.4-10.7-54.6-26.9l0,0L512.8,500.8l1.2-0.8L512.8,499.2z"/>
</g>
</svg>
