<?xml version="1.0" standalone="no"?>
<!DOCTYPE svg PUBLIC "-//W3C//DTD SVG 20010904//EN"
 "http://www.w3.org/TR/2001/REC-SVG-20010904/DTD/svg10.dtd">
<svg version="1.0" xmlns="http://www.w3.org/2000/svg"
 width="900.000000pt" height="900.000000pt" viewBox="0 0 900.000000 900.000000"
 preserveAspectRatio="xMidYMid meet">
<metadata>
Created by potrace 1.10, written by Peter Selinger 2001-2011
</metadata>
<g transform="translate(0.000000,900.000000) scale(0.100000,-0.100000)"
fill="#107c10" stroke="none">
<path d="M4195 8875 c-132 -7 -278 -18 -325 -24 -106 -15 -295 -50 -335 -61
-16 -5 -70 -19 -120 -31 -49 -11 -112 -28 -140 -36 -94 -29 -230 -73 -250 -82
-11 -4 -58 -23 -105 -41 -129 -50 -208 -85 -446 -201 -135 -65 -174 -90 -174
-113 0 -2 118 -6 263 -9 211 -5 280 -10 352 -26 144 -33 208 -48 240 -59 17
-5 57 -18 90 -28 56 -16 115 -36 260 -85 33 -12 74 -27 92 -35 17 -8 37 -14
45 -14 8 0 18 -4 24 -8 5 -4 36 -18 69 -31 33 -13 76 -30 95 -39 19 -8 49 -21
65 -28 30 -12 289 -137 486 -234 l107 -52 38 17 c22 9 53 23 69 30 17 8 71 33
120 56 50 22 126 58 170 79 160 76 235 110 297 135 35 14 72 30 83 34 160 67
375 141 550 188 301 82 400 96 673 99 134 1 246 4 248 7 4 4 -71 52 -138 88
-75 39 -174 89 -228 113 -172 76 -197 86 -212 86 -8 0 -18 4 -24 8 -5 5 -38
19 -74 31 -36 13 -74 27 -85 32 -22 9 -105 36 -200 64 -33 10 -78 24 -100 31
-22 6 -69 20 -105 29 -36 9 -81 21 -100 26 -54 15 -132 29 -317 59 -67 11
-323 26 -568 34 -82 2 -258 -1 -390 -9z"/>
<path d="M1489 7646 c-70 -22 -185 -129 -381 -353 -20 -24 -106 -137 -166
-218 -142 -194 -355 -571 -457 -810 -7 -16 -20 -46 -28 -65 -8 -19 -20 -46
-26 -60 -34 -79 -122 -337 -155 -455 -9 -33 -21 -73 -26 -90 -4 -16 -11 -46
-15 -65 -3 -19 -12 -62 -20 -95 -7 -33 -21 -105 -30 -160 -8 -55 -19 -125 -25
-155 -5 -30 -12 -77 -15 -105 -3 -27 -12 -97 -20 -155 -21 -155 -37 -391 -31
-441 4 -24 11 -102 16 -173 6 -71 14 -156 20 -190 12 -80 29 -185 40 -266 6
-36 14 -85 20 -110 5 -25 16 -79 25 -120 19 -91 53 -234 65 -275 5 -16 19 -64
30 -105 12 -41 25 -82 30 -91 5 -9 12 -33 15 -53 4 -20 11 -39 16 -42 5 -3 9
-12 9 -20 0 -31 96 -257 186 -439 51 -104 98 -197 103 -205 5 -8 33 -55 62
-105 71 -121 223 -347 250 -371 22 -19 22 -19 16 6 -42 172 -47 261 -22 445
20 151 41 254 89 435 28 107 125 381 171 485 7 17 20 46 28 65 42 95 74 164
181 380 64 129 133 264 153 300 20 36 51 93 69 127 19 34 47 85 64 113 16 28
30 53 30 55 0 6 316 530 364 605 23 36 60 92 81 125 61 96 273 412 320 479
155 216 228 318 290 400 103 137 268 349 280 361 7 6 27 30 45 55 19 25 58 72
87 106 46 54 68 104 46 104 -5 0 -26 17 -48 38 -22 20 -63 57 -90 81 -28 24
-75 67 -105 96 -87 81 -285 253 -405 351 -263 216 -478 361 -660 448 -44 21
-88 42 -98 48 -55 27 -313 102 -337 97 -3 -1 -21 -6 -41 -13z"/>
<path d="M7410 7648 c-241 -65 -441 -158 -655 -302 -86 -58 -373 -277 -445
-339 -14 -12 -61 -53 -105 -91 -71 -61 -146 -129 -345 -312 -30 -27 -72 -66
-94 -86 l-38 -35 18 -29 c10 -16 21 -31 24 -34 5 -5 98 -121 232 -290 91 -115
336 -445 398 -536 25 -36 50 -71 55 -78 33 -39 343 -507 441 -665 21 -35 46
-74 54 -87 40 -63 222 -366 251 -419 18 -33 42 -76 54 -95 12 -19 38 -64 57
-100 19 -36 47 -85 60 -110 126 -225 333 -645 403 -815 9 -22 22 -53 29 -70 8
-16 21 -50 31 -75 9 -25 22 -56 27 -70 84 -214 149 -487 175 -738 15 -150 15
-172 0 -285 -8 -67 -14 -124 -11 -126 8 -8 34 22 86 102 77 116 124 190 131
207 4 8 16 29 27 45 11 17 23 37 27 45 4 8 26 48 50 88 40 67 172 331 206 412
8 19 29 76 47 125 18 50 36 99 41 110 12 28 63 186 88 275 12 41 26 89 31 105
22 76 69 286 90 405 45 260 50 971 9 1305 -23 192 -31 242 -39 275 -5 19 -19
76 -30 125 -12 50 -26 104 -30 120 -5 17 -19 64 -30 105 -12 41 -25 84 -29 95
-5 11 -18 49 -29 85 -30 91 -51 152 -62 175 -5 11 -19 45 -30 75 -12 30 -27
69 -34 85 -99 221 -173 366 -245 485 -11 19 -25 46 -31 59 -6 13 -23 42 -39
65 -16 22 -50 75 -77 116 -164 255 -456 590 -593 680 -47 32 -86 36 -151 18z"/>
<path d="M4475 5306 c-32 -18 -142 -94 -156 -108 -8 -7 -45 -38 -84 -69 -38
-31 -79 -65 -90 -75 -11 -11 -56 -50 -100 -88 -262 -225 -763 -711 -1005 -975
-58 -63 -116 -126 -130 -140 -14 -14 -70 -78 -125 -141 -55 -63 -105 -119
-111 -125 -23 -22 -272 -326 -359 -439 -27 -35 -113 -152 -193 -261 -64 -88
-182 -266 -182 -274 0 -5 -4 -11 -8 -13 -25 -10 -230 -386 -302 -553 -31 -71
-48 -118 -91 -252 -34 -107 -49 -324 -28 -413 28 -121 115 -236 264 -351 39
-29 72 -56 75 -59 16 -16 294 -203 378 -254 162 -98 580 -306 615 -306 7 0 17
-4 23 -8 20 -17 301 -115 454 -158 30 -9 69 -20 86 -25 144 -43 448 -94 704
-120 206 -20 801 -2 995 30 56 10 102 17 265 42 36 5 79 14 95 19 28 8 72 19
174 41 25 5 59 14 75 19 17 5 63 19 101 31 105 32 159 51 169 61 6 4 16 8 24
8 8 0 28 6 45 14 18 7 57 24 87 36 193 78 463 216 685 348 108 65 325 208 335
221 3 4 21 18 40 31 57 40 81 61 168 148 62 61 92 100 115 150 30 64 31 73 32
192 0 69 -6 152 -13 185 -43 192 -141 436 -257 640 -25 44 -50 92 -56 108 -6
15 -15 27 -20 27 -5 0 -9 6 -9 13 0 8 -13 33 -30 55 -16 23 -30 44 -30 46 0 5
-64 105 -77 121 -5 6 -20 28 -33 50 -13 22 -29 45 -35 52 -5 7 -30 42 -55 78
-48 72 -259 357 -269 365 -4 3 -30 36 -60 74 -29 38 -61 78 -71 90 -79 93
-171 199 -210 241 -26 28 -67 73 -91 100 -100 114 -204 221 -609 625 -234 234
-481 477 -550 539 -69 63 -143 131 -165 151 -85 77 -239 203 -290 236 -57 36
-77 40 -110 20z"/>
</g>
</svg>
